<svg version="1.2" xmlns="http://www.w3.org/2000/svg" viewBox="0 0 1582 1303" width="1582" height="1303">
	<title>DELTA</title>
	<style>
		.s0 { fill: #0087dc } 
	</style>
	<g id="Group_3481">
		<path id="Path_11327" fill-rule="evenodd" class="s0" d="m1581.9 1303h-1581.9l792.9-1303zm-537.1-181.3c29.8-19.3 53.7-46.7 68.4-79.3 14.7-32.6 19.8-68.7 14.4-103.7-5.2-35.3-20.6-68.4-44.3-95q6-13.9 10.6-28 4.6-14.4 7.9-29 3.3-14.7 4.9-29.6 1.6-14.9 1.9-29.9c0.3-12.7-0.6-25.8-2.7-38.2-2.2-12.8-5.7-25.3-10.3-37.2-4.7-12.2-10.4-23.6-17.4-34.5-6.8-10.9-14.7-21.2-23.6-30.4-10.1-9.5-20.7-17.9-32.4-25.3-11.6-7.3-23.9-13.3-36.9-18.1-12.7-4.9-26.1-8.5-39.6-10.6-13.6-2.2-27.2-3-41-2.5q-0.3 0-0.6 0-0.2 0-0.5 0-0.3 0-0.3 0-0.3 0-0.5 0c-132.5 1.4-267.2 75.8-371.8 172.7-104.2 98-180.2 218.2-181.6 329.5q0 4.9 0.3 9.5 0.8 16 4.6 32.1 3.5 15.7 9.8 30.6 6.2 15 15.2 28.5 8.7 13.9 19.5 25.8c9.8 10.3 20.4 19.6 32.1 27.7 11.4 8.2 23.9 15.2 36.6 20.9 13 5.7 26.4 10.1 40.2 13 13.8 3 28 4.7 42.1 4.9q7 0.3 14.4 0.3c90.7-0.3 188.1-40.2 278-102.3q1.1-0.8 1.9-1.7 11.2 7.1 23.1 12.8 12.2 5.4 24.7 9.2 12.8 3.6 25.8 5.5 13.3 1.9 26.3 1.9c35.9 0 70.6-10.4 100.8-29.6zm-23.9-466.1q6.5 10.6 10.8 22.5 4.4 11.7 6.6 24.2 1.9 12.4 1.3 24.9 0 9.3-1.1 18.5-0.8 9.2-2.4 18.5-1.6 9.2-4.1 18.1-2.4 9-5.7 17.7c-36.9-18.5-79-24.2-119.5-15.8-40.7 8.2-77.1 29.9-104 61.1-26.8 31.5-42.3 71.1-44.2 112.4-1.6 41.3 10.6 82 34.5 115.6-78.2 53-162.1 83.9-228.9 83.9-3.6 0-7.4-0.2-10.9-0.5q-14.6 0.3-28.8-2.7-14.1-2.7-27.4-8.4-13.3-5.7-25.2-14.2-12-8.1-22-18.7-6.8-7.3-12.3-16-5.7-8.7-9.5-18.2-4-9.2-6.5-19.3-2.1-10-3-20.1 0-3.5 0-6.5c-1.3-77.6 63.3-190.5 159.4-279 95.3-89.3 219.7-154.2 325.3-154.2h1.4q13.8-0.8 27.4 1.1 13.8 1.9 26.9 6.8 13 4.6 24.7 11.6 11.9 7.1 22 16.6 8.4 9.2 15.2 20.1z"/>
	</g>
</svg>